# xmcd CD database file
#
# Track frame offsets:
#        150
#        23259
#        41912
#        55827
#        70746
#        88785
#        110725
#        126647
#        144296
#        162335
#        184666
#        198495
#        219275
#        236311
#        252846
#        269046
#        287085
#        301224
#        313790
#        327880
#
# Disc length: 4510 seconds
#
# Revision: 0
# Processed by: cddbd v1.5.2PL0 Copyright (c) Steve Scherf et al.
# Submitted via: CUERipper 2.1.6
#
DISCID=26119c14
DTITLE=Various Artist - CMC Rocks the Hunter 2012
DYEAR=2012
DGENRE=Country
TTITLE0=Good Time - Alan Jackson
TTITLE1=Stuck Like Glue - Sugarland
TTITLE2=Gimme That Girl - Joe Nichols
TTITLE3=Crazy Girl - Eli Young Band
TTITLE4=Home - Dierks Bentley
TTITLE5=Strawberry Wine - Deana Carter
TTITLE6=Country Girl - Doc Walker
TTITLE7=Get Off On The Pain - Gary Allan
TTITLE8=Shiny Things - Beccy Cole
TTITLE9=Moments - Emerson Drive
TTITLE10=Sweet Emmylou - Catherine Britt
TTITLE11=Trail In Life - Dean Brody
TTITLE12=Smash - O'Shea
TTITLE13=High Lonesome - Jedd Hughes
TTITLE14=Save Yourself - The McClymonts
TTITLE15=Hurricane - Steve Forde
TTITLE16=Chicken and Biscuits - Colt Ford
TTITLE17=Counting Down The Days - Jonah's Road
TTITLE18=In Spite Of Ourselves - Kirsty Akers and Bob Evans
TTITLE19=Family Reunion - Corb Lund
EXTD=
EXTT0=
EXTT1=
EXTT2=
EXTT3=
EXTT4=
EXTT5=
EXTT6=
EXTT7=
EXTT8=
EXTT9=
EXTT10=
EXTT11=
EXTT12=
EXTT13=
EXTT14=
EXTT15=
EXTT16=
EXTT17=
EXTT18=
EXTT19=
PLAYORDER=
